<?xml version="1.0" encoding="utf-8"?>
<!-- Generator: Adobe Illustrator 24.1.1, SVG Export Plug-In . SVG Version: 6.00 Build 0)  -->
<svg version="1.2" baseProfile="tiny" id="Capa_1" xmlns="http://www.w3.org/2000/svg" xmlns:xlink="http://www.w3.org/1999/xlink"
	 x="0px" y="0px" viewBox="0 0 800 800" xml:space="preserve">
<polygon fill="#FF0000" points="400.2,71 729.8,310.4 603.9,697.9 196.5,697.9 70.6,310.4 "/>
<radialGradient id="SVGID_1_" cx="400.2051" cy="417.7093" r="311.103" gradientUnits="userSpaceOnUse">
	<stop  offset="0.4" style="stop-color:#FFFF00"/>
	<stop  offset="1" style="stop-color:#FFFF00;stop-opacity:0.9"/>
</radialGradient>
<circle fill="url(#SVGID_1_)" stroke="#FFFFFF" stroke-miterlimit="10" cx="400.2" cy="417.7" r="311.1"/>
<g>
	<rect x="89.1" y="324.6" fill="none" width="185.7" height="245.4"/>
	<path d="M245.9,375.3c4.8,0,6.7,2.1,6.7,4.3c0,3.8-13.7,20.1-20.4,31.1c-1.9,2.9-2.7,4-4.8,4c-2.7,0-19.6-8.8-42.4-8.8
		c0,0-18.2,45-23.6,74c-0.8,4.8-2.1,7.8-6.4,7.8c-12.3,0-33.5-3.2-33.5-12.9c0-12.3,33.2-105.1,49.6-134.3c4-7,15-15,16.1-15.8
		c-31.6,3.2-61.1,21.7-61.1,46.6c0,16.9,6.7,20.6,6.7,23.6c0,1.6-1.6,2.7-4.3,2.7c-12.9,0-39.4-12.6-39.4-38.1
		c0-44.8,54.4-53.6,107.2-53.6c28.4,0,51.7,2.9,62.7,2.9c20.4,0,33.2-7.5,36.7-7.5c1.9,0,2.9,1.3,2.9,2.9c0,16.1-22,46.9-32.2,46.9
		c-9.9,0-27.1-20.9-45.3-20.9c-3.5,0-6.2,2.1-9.1,7.5c-8.3,16.4-13.4,33.2-20.4,50.7C194.2,385.8,228.2,375.3,245.9,375.3z"/>
</g>
<g>
	<rect x="274.8" y="324.6" fill="none" width="185.7" height="245.4"/>
	<path d="M356.5,460c16.6,0,53.1-11.5,70.2-11.5c4.6,0,6.2,1.9,6.2,3.8c0,4.8-19,31.9-25.7,39.4c-1.6,1.6-2.7,2.7-4.3,2.7
		c-7,0-11.8-11.5-51.5-11.5c-16.6,0-35.7,2.4-39.7,2.4s-5.6-1.9-5.6-5.1c0-14.2,34.9-109.1,52.5-141.8c3.5-6.7,12.1-13.1,12.9-13.7
		c-31.6,3.2-60.1,21.7-60.1,46.6c0,16.9,6.7,20.6,6.7,23.6c0,1.6-1.3,2.7-4.3,2.7c-12.9,0-39.4-12.6-39.4-38.1
		c0-43.2,52.8-53.6,111-53.6c30.6,0,46.9,2.9,57.9,2.9c20.4,0,33.5-7.5,36.7-7.5c1.9,0,2.9,1.3,2.9,2.9c0,16.1-22,46.9-31.9,46.9
		c-10.2,0-24.9-20.9-45-20.9c-1.1,0-2.1,0.5-3.5,2.7c-8.3,15.3-16.4,34.3-23.6,52.8c0,0,34-10.5,51.7-10.5c4.8,0,6.7,2.1,6.7,4.3
		c0,3.8-13.7,20.1-20.4,31.1c-1.9,2.9-2.7,4-4.8,4c-2.7,0-19.3-8.6-40.8-8.8c0,0-18,46.9-18,51.2C353.6,459.2,354.7,460,356.5,460z"
		/>
</g>
<g>
	<rect x="442.9" y="324.6" fill="none" width="252.8" height="274"/>
	<path d="M671.3,468.1c0,14.7,5.1,18,5.1,20.9c0,2.7-1.9,4.3-5.9,4.3c-11,0-41.3-16.9-41.3-33.8c0-19.6,26.5-90.3,26.5-90.3
		c-22.5,29.2-56.6,86.3-70,110.7c-2.1,4-5.6,5.6-7.5,5.6c-11.5,0-34-9.7-34-21.4c0-9.7,11-61.9,11-91.4c0-5.9-0.5-10.7-1.3-14.2
		c-13.7,54.2-33.2,126.8-66.8,126.8c-31.9,0-44.2-35.7-44.2-45.6c0-1.6,1.1-2.9,2.9-2.9c3.2,0,10.2,12.9,26.8,12.9
		c32.2,0,65.1-85,65.1-117.2c0-2.4-2.1-4-4.8-4c-13.1,0-38.9,23.3-38.9,48.3c0,16.9,6.7,20.6,6.7,23.6c0,1.6-2.1,2.7-4.3,2.7
		c-12.9,0-39.4-12.6-39.4-35.1c0-33.8,37.5-61.9,78.3-61.9c45,0,59,34.3,59,65.1c0,36.2-1.9,49.6-4.8,69.7
		c17.2-30,48.5-78.8,78.3-129.8c1.9-3.2,3.2-4.8,5.1-4.8c11.5,0,35.7,15.8,35.7,31.6C708.6,350.9,671.3,426.8,671.3,468.1z"/>
</g>
<g>
</g>
<g>
</g>
<g>
</g>
<g>
</g>
<g>
</g>
<g>
</g>
<g>
</g>
<g>
</g>
<g>
</g>
<g>
</g>
<g>
</g>
<g>
</g>
<g>
</g>
<g>
</g>
<g>
</g>
</svg>
